<?xml version="1.0" encoding="UTF-8" standalone="no"?>
<!-- Created with Inkscape (http://www.inkscape.org/) -->

<svg
   width="932.02374"
   height="916.68176"
   viewBox="0 0 246.59794 242.53871"
   version="1.1"
   id="svg1"
   inkscape:version="1.4.3 (0d15f75042, 2025-12-25)"
   sodipodi:docname="logo-v2.svg"
   inkscape:export-filename="logo-v2.png"
   inkscape:export-xdpi="96"
   inkscape:export-ydpi="96"
   xmlns:inkscape="http://www.inkscape.org/namespaces/inkscape"
   xmlns:sodipodi="http://sodipodi.sourceforge.net/DTD/sodipodi-0.dtd"
   xmlns:xlink="http://www.w3.org/1999/xlink"
   xmlns="http://www.w3.org/2000/svg"
   xmlns:svg="http://www.w3.org/2000/svg">
  <sodipodi:namedview
     id="namedview1"
     pagecolor="#ffffff"
     bordercolor="#000000"
     borderopacity="0.25"
     inkscape:showpageshadow="2"
     inkscape:pageopacity="0.0"
     inkscape:pagecheckerboard="0"
     inkscape:deskcolor="#d1d1d1"
     inkscape:document-units="px"
     inkscape:zoom="1.5643378"
     inkscape:cx="476.87909"
     inkscape:cy="713.40089"
     inkscape:window-width="1920"
     inkscape:window-height="1131"
     inkscape:window-x="0"
     inkscape:window-y="0"
     inkscape:window-maximized="1"
     inkscape:current-layer="layer1"
     showgrid="false"
     showguides="true" />
  <defs
     id="defs1">
    <linearGradient
       inkscape:collect="always"
       xlink:href="#linearGradient295"
       id="linearGradient296"
       x1="536.95624"
       y1="476.70462"
       x2="508.89862"
       y2="611.70233"
       gradientUnits="userSpaceOnUse"
       gradientTransform="matrix(0.26458333,0,0,0.26458333,26.150346,29.473942)" />
    <linearGradient
       id="linearGradient295"
       inkscape:collect="always">
      <stop
         style="stop-color:#4ea1d8;stop-opacity:1;"
         offset="0"
         id="stop295" />
      <stop
         style="stop-color:#173f6f;stop-opacity:1;"
         offset="1"
         id="stop296" />
    </linearGradient>
    <linearGradient
       inkscape:collect="always"
       xlink:href="#linearGradient311"
       id="linearGradient312"
       x1="1422.0522"
       y1="893.59869"
       x2="1407.375"
       y2="924.21289"
       gradientUnits="userSpaceOnUse"
       gradientTransform="matrix(0.26458333,0,0,0.26458333,-221.14431,-84.31378)" />
    <linearGradient
       id="linearGradient311"
       inkscape:collect="always">
      <stop
         style="stop-color:#4ea1d8;stop-opacity:1;"
         offset="0"
         id="stop311" />
      <stop
         style="stop-color:#2b72a6;stop-opacity:1;"
         offset="1"
         id="stop312" />
    </linearGradient>
  </defs>
  <g
     inkscape:label="Layer 1"
     inkscape:groupmode="layer"
     id="layer1"
     transform="translate(-42.165749,-44.165203)">
    <rect
       style="fill:#ffffff;stroke-width:1.5875;stroke-linecap:round;stroke-linejoin:round;paint-order:stroke markers fill"
       id="rect1"
       width="246.59795"
       height="242.53871"
       x="42.165749"
       y="44.165203"
       inkscape:export-filename="/tmp/pluvia.png"
       inkscape:export-xdpi="96"
       inkscape:export-ydpi="96" />
    <rect
       style="clip-rule:evenodd;fill:#0c2b4b;fill-opacity:1;fill-rule:evenodd;stroke-width:2.04038;stroke-linecap:round;stroke-linejoin:round;paint-order:stroke markers fill;image-rendering:optimizeQuality;shape-rendering:geometricPrecision;text-rendering:geometricPrecision"
       id="rect278"
       width="224.89583"
       height="224.89583"
       x="53.016808"
       y="52.986645"
       rx="22.217768"
       ry="22.217768" />
    <circle
       style="clip-rule:evenodd;fill:#ffffff;fill-opacity:1;fill-rule:evenodd;stroke-width:1.24677;stroke-linecap:round;stroke-linejoin:round;paint-order:stroke markers fill;image-rendering:optimizeQuality;shape-rendering:geometricPrecision;text-rendering:geometricPrecision"
       id="path278"
       cx="159.93896"
       cy="158.9791"
       r="99.362785" />
    <g
       id="g3"
       transform="translate(-1.440074,-0.98835373)">
      <path
         d="m 161.27388,112.72894 c -0.0423,-0.33673 -0.59516,-0.33673 -0.63587,0 -1.38293,11.13082 -8.45424,13.42527 -8.45424,21.16218 0,4.78154 4.01569,8.65626 8.77216,8.65626 4.75493,0 8.77059,-3.87629 8.77059,-8.65626 0,-7.73691 -7.06972,-10.03136 -8.45264,-21.16218 z m -1.33596,12.30545 c -0.0924,0.343 -0.19265,0.69539 -0.29599,1.06187 -0.62804,2.23024 -1.34067,4.75961 -1.34067,7.68366 0,1.58498 -0.93655,2.14723 -1.81049,2.14723 a 1.8183314,1.8183314 0 0 1 -1.81049,-1.82616 c 0,-3.45655 1.66327,-5.71498 3.13235,-7.70559 0.46201,-0.62334 0.89585,-1.21379 1.24825,-1.8011 0.16131,-0.26938 0.59512,-0.25685 0.79248,0.009 0.0924,0.12529 0.12372,0.28504 0.0846,0.43069 z"
         id="path282"
         style="clip-rule:evenodd;fill:#0c2b4b;fill-opacity:1;fill-rule:evenodd;stroke-width:1.56618;image-rendering:optimizeQuality;shape-rendering:geometricPrecision;text-rendering:geometricPrecision" />
      <path
         d="m 154.68377,85.010359 c -0.0319,-0.254264 -0.4494,-0.254264 -0.48014,0 -1.04426,8.404942 -6.38384,10.137495 -6.38384,15.979681 0,3.61056 3.03228,6.53639 6.62392,6.53639 3.59045,0 6.62271,-2.92701 6.62271,-6.53639 0,-5.842186 -5.33839,-7.574739 -6.38265,-15.979681 z m -1.00878,9.291915 c -0.0698,0.258996 -0.14547,0.525087 -0.22352,0.801823 -0.47421,1.684062 -1.01232,3.594007 -1.01232,5.801973 0,1.19682 -0.7072,1.62139 -1.36713,1.62139 a 1.3730321,1.3730321 0 0 1 -1.3671,-1.37895 c 0,-2.610058 1.25595,-4.315411 2.36524,-5.818533 0.34888,-0.470683 0.67646,-0.916538 0.94255,-1.360022 0.12182,-0.203412 0.44942,-0.19395 0.59841,0.0071 0.0698,0.09461 0.0934,0.215238 0.0639,0.325223 z"
         id="path1"
         style="clip-rule:evenodd;fill:#0c2b4b;fill-opacity:1;fill-rule:evenodd;stroke-width:1.18263;image-rendering:optimizeQuality;shape-rendering:geometricPrecision;text-rendering:geometricPrecision" />
      <path
         d="m 165.48179,75.974455 c -0.0212,-0.171598 -0.30322,-0.171598 -0.32396,0 -0.70485,5.672291 -4.30829,6.841559 -4.30829,10.784316 0,2.436675 2.04642,4.411249 4.47032,4.411249 2.42311,0 4.46953,-1.975368 4.46953,-4.411249 0,-3.942757 -3.60275,-5.112025 -4.30753,-10.784316 z"
         id="path280"
         style="clip-rule:evenodd;fill:#0c2b4b;fill-opacity:1;fill-rule:evenodd;stroke-width:0.798129;image-rendering:optimizeQuality;shape-rendering:geometricPrecision;text-rendering:geometricPrecision"
         sodipodi:nodetypes="ccsssc" />
      <path
         d="m 171.75786,94.44747 c -0.0319,-0.254265 -0.44939,-0.254265 -0.48017,0 -1.04425,8.40494 -6.38381,10.13749 -6.38381,15.97968 0,3.61056 3.03226,6.53639 6.6239,6.53639 3.59047,0 6.62273,-2.92701 6.62273,-6.53639 0,-5.84219 -5.33839,-7.57474 -6.38265,-15.97968 z m -1.00878,9.29191 c -0.0698,0.259 -0.14546,0.52509 -0.22352,0.80183 -0.47424,1.68406 -1.01235,3.594 -1.01235,5.80197 0,1.19683 -0.7072,1.62139 -1.3671,1.62139 a 1.3730321,1.3730321 0 0 1 -1.36713,-1.37895 c 0,-2.61006 1.25595,-4.31541 2.36527,-5.81853 0.34888,-0.47069 0.67646,-0.91654 0.94256,-1.36002 0.12181,-0.20342 0.44939,-0.19395 0.5984,0.007 0.0698,0.0946 0.0934,0.21524 0.0639,0.32522 z"
         id="path281"
         style="clip-rule:evenodd;fill:#0c2b4b;fill-opacity:1;fill-rule:evenodd;stroke-width:1.18263;image-rendering:optimizeQuality;shape-rendering:geometricPrecision;text-rendering:geometricPrecision" />
      <path
         id="path283"
         style="clip-rule:evenodd;fill:#0c2b4b;fill-opacity:1;fill-rule:evenodd;stroke:none;stroke-width:0.79375;stroke-linecap:round;stroke-linejoin:round;paint-order:stroke markers fill;image-rendering:optimizeQuality;shape-rendering:geometricPrecision;text-rendering:geometricPrecision"
         d="m 129.67244,115.4134 v 7.15512 c 0,0 2.36644,0.97216 3.21842,1.87534 0.51824,0.54936 1.02476,2.02055 1.02476,2.02054 v 49.01778 c 0,7.78486 5.51063,22.86206 28.62813,22.86206 21.01802,0 26.29926,-14.99489 26.29926,-22.9091 v -48.98986 c 0,0 0.47919,-1.28872 1.16994,-1.98954 0.69074,-0.70082 3.07268,-1.86759 3.07268,-1.86759 v -7.17475 h -13.41107 c -0.46019,1.06965 -1.62271,1.92621 -2.76545,2.83548 h 12.7943 v 2.70526 c 0,0 -2.19657,1.47628 -2.89957,2.55592 -0.53763,0.82571 -0.89037,2.81843 -0.89037,2.81843 v 49.16739 c -0.0265,13.25192 -11.93785,20.01288 -23.38425,20.01288 -12.94797,-0.0594 -25.68408,-6.64774 -25.68408,-20.04283 v -49.12038 c 0,0 -0.0111,-1.31537 -0.29816,-1.88206 -0.74748,-1.47586 -3.49229,-3.5264 -3.49229,-3.5264 v -2.68821 h 22.91747 c 0.35443,-0.36334 0.68199,-0.69622 1.31773,-2.83548 z"
         sodipodi:nodetypes="ccscccccsccccccsccccccccccc" />
      <path
         id="path313"
         style="clip-rule:evenodd;fill:url(#linearGradient296);fill-opacity:1;fill-rule:evenodd;stroke:none;stroke-width:0.79375;stroke-linecap:round;stroke-linejoin:round;paint-order:stroke markers fill;image-rendering:optimizeQuality;shape-rendering:geometricPrecision;text-rendering:geometricPrecision"
         d="m 178.62404,152.36121 c -0.9234,-0.18083 -4.55401,-0.80333 -8.35348,0.79061 -1.96916,0.8261 -5.60549,3.28501 -6.71174,4.02353 -1.85634,1.52704 -3.56015,2.62756 -5.99911,3.96255 -2.01438,1.22963 -5.14493,1.95154 -8.46616,1.95234 -3.51023,-7e-5 -6.62366,-0.79071 -8.56486,-2.01022 -0.0177,4.46422 0.0308,8.92893 -0.0135,13.39299 0,11.52294 8.74723,17.34915 22.05654,17.36484 11.32716,-0.0164 19.67063,-8.14517 19.67063,-17.36484 v -21.35335 c 0,-0.28862 -1.37596,-0.31931 -3.61833,-0.75845 z"
         sodipodi:nodetypes="ssccccccsss" />
      <path
         style="baseline-shift:baseline;clip-rule:nonzero;display:inline;overflow:visible;vector-effect:none;fill:#8dc3e4;fill-rule:nonzero;stroke-width:0.264583;stroke-linecap:round;stroke-linejoin:round;paint-order:stroke markers fill;image-rendering:auto;shape-rendering:auto;text-rendering:auto;enable-background:accumulate;stop-color:#000000"
         d="m 142.70997,126.80873 a 0.79374999,0.79374999 0 0 0 -0.79375,0.79375 v 20.52071 a 0.79374999,0.79374999 0 0 0 0.79375,0.79375 0.79374999,0.79374999 0 0 0 0.79375,-0.79375 v -20.52071 a 0.79374999,0.79374999 0 0 0 -0.79375,-0.79375 z"
         id="path298" />
      <path
         id="path310"
         style="clip-rule:evenodd;fill:url(#linearGradient312);fill-rule:evenodd;stroke:none;stroke-width:1.84313;stroke-linecap:round;stroke-linejoin:round;stroke-dasharray:none;stroke-opacity:1;paint-order:stroke markers fill;image-rendering:optimizeQuality;shape-rendering:geometricPrecision;text-rendering:geometricPrecision"
         d="m 140.523,158.13653 c 1.93226,1.25973 5.0981,2.08094 8.67598,2.08101 3.32124,-7.9e-4 6.45176,-0.7227 8.46614,-1.95233 1.3689,-0.70348 2.92291,-1.75159 4.57338,-3.08457 -3.06602,-1.73187 -8.39156,-4.21682 -13.70926,-4.2168 -3.10073,8e-4 -6.00733,0.62913 -8.00624,1.69086 z" />
      <rect
         style="clip-rule:evenodd;fill:#ffffff;fill-opacity:1;fill-rule:evenodd;stroke:none;stroke-width:1.5875;stroke-linecap:round;stroke-linejoin:round;stroke-dasharray:none;stroke-opacity:1;paint-order:stroke markers fill;image-rendering:optimizeQuality;shape-rendering:geometricPrecision;text-rendering:geometricPrecision"
         id="rect313"
         width="3.497957"
         height="1.0667528"
         x="178.74438"
         y="173.9467" />
      <rect
         style="clip-rule:evenodd;fill:#ffffff;fill-opacity:1;fill-rule:evenodd;stroke:none;stroke-width:1.5875;stroke-linecap:round;stroke-linejoin:round;stroke-dasharray:none;stroke-opacity:1;paint-order:stroke markers fill;image-rendering:optimizeQuality;shape-rendering:geometricPrecision;text-rendering:geometricPrecision"
         id="rect316"
         width="2.6544781"
         height="0.79386258"
         x="179.58788"
         y="171.18405" />
      <rect
         style="clip-rule:evenodd;fill:#ffffff;fill-opacity:1;fill-rule:evenodd;stroke:none;stroke-width:1.5875;stroke-linecap:round;stroke-linejoin:round;stroke-dasharray:none;stroke-opacity:1;paint-order:stroke markers fill;image-rendering:optimizeQuality;shape-rendering:geometricPrecision;text-rendering:geometricPrecision"
         id="rect320"
         width="2.6544781"
         height="0.79386258"
         x="179.58788"
         y="168.28497" />
      <rect
         style="clip-rule:evenodd;fill:#ffffff;fill-opacity:1;fill-rule:evenodd;stroke:none;stroke-width:1.5875;stroke-linecap:round;stroke-linejoin:round;stroke-dasharray:none;stroke-opacity:1;paint-order:stroke markers fill;image-rendering:optimizeQuality;shape-rendering:geometricPrecision;text-rendering:geometricPrecision"
         id="rect321"
         width="2.6544781"
         height="0.79386258"
         x="179.58788"
         y="165.38589" />
      <rect
         style="clip-rule:evenodd;fill:#ffffff;fill-opacity:1;fill-rule:evenodd;stroke:none;stroke-width:1.5875;stroke-linecap:round;stroke-linejoin:round;stroke-dasharray:none;stroke-opacity:1;paint-order:stroke markers fill;image-rendering:optimizeQuality;shape-rendering:geometricPrecision;text-rendering:geometricPrecision"
         id="rect322"
         width="2.6544781"
         height="0.79386258"
         x="179.58788"
         y="162.4868" />
      <rect
         style="clip-rule:evenodd;fill:#ffffff;fill-opacity:1;fill-rule:evenodd;stroke:none;stroke-width:1.5875;stroke-linecap:round;stroke-linejoin:round;stroke-dasharray:none;stroke-opacity:1;paint-order:stroke markers fill;image-rendering:optimizeQuality;shape-rendering:geometricPrecision;text-rendering:geometricPrecision"
         id="rect324"
         width="3.497957"
         height="1.0667528"
         x="178.74438"
         y="159.45128" />
      <rect
         style="clip-rule:evenodd;fill:#ffffff;fill-opacity:1;fill-rule:evenodd;stroke:none;stroke-width:1.5875;stroke-linecap:round;stroke-linejoin:round;stroke-dasharray:none;stroke-opacity:1;paint-order:stroke markers fill;image-rendering:optimizeQuality;shape-rendering:geometricPrecision;text-rendering:geometricPrecision"
         id="rect326"
         width="2.6544781"
         height="0.79386258"
         x="179.58788"
         y="156.68864" />
      <rect
         style="clip-rule:evenodd;fill:#ffffff;fill-opacity:1;fill-rule:evenodd;stroke:none;stroke-width:1.5875;stroke-linecap:round;stroke-linejoin:round;stroke-dasharray:none;stroke-opacity:1;paint-order:stroke markers fill;image-rendering:optimizeQuality;shape-rendering:geometricPrecision;text-rendering:geometricPrecision"
         id="rect327"
         width="2.6544781"
         height="0.79386258"
         x="179.58788"
         y="153.78957" />
      <rect
         style="clip-rule:evenodd;fill:#0c2b4b;fill-opacity:1;fill-rule:evenodd;stroke:none;stroke-width:1.5875;stroke-linecap:round;stroke-linejoin:round;stroke-dasharray:none;stroke-opacity:1;paint-order:stroke markers fill;image-rendering:optimizeQuality;shape-rendering:geometricPrecision;text-rendering:geometricPrecision"
         id="rect328"
         width="2.6544781"
         height="0.79386258"
         x="179.58788"
         y="150.89049" />
      <rect
         style="clip-rule:evenodd;fill:#0c2b4b;fill-opacity:1;fill-rule:evenodd;stroke:none;stroke-width:1.5875;stroke-linecap:round;stroke-linejoin:round;stroke-dasharray:none;stroke-opacity:1;paint-order:stroke markers fill;image-rendering:optimizeQuality;shape-rendering:geometricPrecision;text-rendering:geometricPrecision"
         id="rect329"
         width="2.6544781"
         height="0.79386258"
         x="179.58788"
         y="147.99138" />
      <rect
         style="clip-rule:evenodd;fill:#0c2b4b;fill-opacity:1;fill-rule:evenodd;stroke:none;stroke-width:1.5875;stroke-linecap:round;stroke-linejoin:round;stroke-dasharray:none;stroke-opacity:1;paint-order:stroke markers fill;image-rendering:optimizeQuality;shape-rendering:geometricPrecision;text-rendering:geometricPrecision"
         id="rect330"
         width="3.497957"
         height="1.0667528"
         x="178.74438"
         y="144.95586" />
      <rect
         style="clip-rule:evenodd;fill:#0c2b4b;fill-opacity:1;fill-rule:evenodd;stroke:none;stroke-width:1.5875;stroke-linecap:round;stroke-linejoin:round;stroke-dasharray:none;stroke-opacity:1;paint-order:stroke markers fill;image-rendering:optimizeQuality;shape-rendering:geometricPrecision;text-rendering:geometricPrecision"
         id="rect336"
         width="2.6544781"
         height="0.79386258"
         x="179.58788"
         y="142.19322" />
      <rect
         style="clip-rule:evenodd;fill:#0c2b4b;fill-opacity:1;fill-rule:evenodd;stroke:none;stroke-width:1.5875;stroke-linecap:round;stroke-linejoin:round;stroke-dasharray:none;stroke-opacity:1;paint-order:stroke markers fill;image-rendering:optimizeQuality;shape-rendering:geometricPrecision;text-rendering:geometricPrecision"
         id="rect337"
         width="2.6544781"
         height="0.79386258"
         x="179.58788"
         y="139.29414" />
      <rect
         style="clip-rule:evenodd;fill:#0c2b4b;fill-opacity:1;fill-rule:evenodd;stroke:none;stroke-width:1.5875;stroke-linecap:round;stroke-linejoin:round;stroke-dasharray:none;stroke-opacity:1;paint-order:stroke markers fill;image-rendering:optimizeQuality;shape-rendering:geometricPrecision;text-rendering:geometricPrecision"
         id="rect338"
         width="2.6544781"
         height="0.79386258"
         x="179.58788"
         y="136.39507" />
      <rect
         style="clip-rule:evenodd;fill:#0c2b4b;fill-opacity:1;fill-rule:evenodd;stroke:none;stroke-width:1.5875;stroke-linecap:round;stroke-linejoin:round;stroke-dasharray:none;stroke-opacity:1;paint-order:stroke markers fill;image-rendering:optimizeQuality;shape-rendering:geometricPrecision;text-rendering:geometricPrecision"
         id="rect339"
         width="2.6544781"
         height="0.79386258"
         x="179.58788"
         y="133.49597" />
      <rect
         style="clip-rule:evenodd;fill:#0c2b4b;fill-opacity:1;fill-rule:evenodd;stroke:none;stroke-width:1.5875;stroke-linecap:round;stroke-linejoin:round;stroke-dasharray:none;stroke-opacity:1;paint-order:stroke markers fill;image-rendering:optimizeQuality;shape-rendering:geometricPrecision;text-rendering:geometricPrecision"
         id="rect340"
         width="3.497957"
         height="1.0667528"
         x="178.74438"
         y="130.46045" />
      <text
         xml:space="preserve"
         style="font-style:normal;font-variant:normal;font-weight:bold;font-stretch:normal;font-size:3.65487px;line-height:1.4;font-family:Poppins;-inkscape-font-specification:'Poppins, Bold';font-variant-ligatures:normal;font-variant-caps:normal;font-variant-numeric:normal;font-variant-east-asian:normal;letter-spacing:-0.0106921px;writing-mode:lr-tb;direction:ltr;clip-rule:evenodd;fill:#0c2b4b;fill-opacity:1;fill-rule:evenodd;stroke:none;stroke-width:0.188684;stroke-linecap:round;stroke-linejoin:round;stroke-dasharray:none;stroke-opacity:1;paint-order:stroke markers fill;image-rendering:optimizeQuality;shape-rendering:geometricPrecision;text-rendering:geometricPrecision"
         x="174.71799"
         y="127.86329"
         id="text340"><tspan
           sodipodi:role="line"
           id="tspan340"
           x="174.71799"
           y="127.86329"
           style="stroke-width:0.188684">mm</tspan></text>
      <text
         xml:space="preserve"
         style="font-style:normal;font-variant:normal;font-weight:bold;font-stretch:normal;font-size:3.89475px;line-height:1.4;font-family:Poppins;-inkscape-font-specification:'Poppins, Bold';font-variant-ligatures:normal;font-variant-caps:normal;font-variant-numeric:normal;font-variant-east-asian:normal;letter-spacing:-0.0113938px;writing-mode:lr-tb;direction:ltr;clip-rule:evenodd;fill:#0c2b4b;fill-opacity:1;fill-rule:evenodd;stroke:none;stroke-width:0.201068;stroke-linecap:round;stroke-linejoin:round;stroke-dasharray:none;stroke-opacity:1;paint-order:stroke markers fill;image-rendering:optimizeQuality;shape-rendering:geometricPrecision;text-rendering:geometricPrecision"
         x="173.30751"
         y="132.45241"
         id="text341"><tspan
           sodipodi:role="line"
           id="tspan341"
           x="173.30751"
           y="132.45241"
           style="stroke-width:0.201068">20</tspan></text>
      <text
         xml:space="preserve"
         style="font-style:normal;font-variant:normal;font-weight:bold;font-stretch:normal;font-size:3.89475px;line-height:1.4;font-family:Poppins;-inkscape-font-specification:'Poppins, Bold';font-variant-ligatures:normal;font-variant-caps:normal;font-variant-numeric:normal;font-variant-east-asian:normal;letter-spacing:-0.0113938px;writing-mode:lr-tb;direction:ltr;clip-rule:evenodd;fill:#0c2b4b;fill-opacity:1;fill-rule:evenodd;stroke:none;stroke-width:0.201068;stroke-linecap:round;stroke-linejoin:round;stroke-dasharray:none;stroke-opacity:1;paint-order:stroke markers fill;image-rendering:optimizeQuality;shape-rendering:geometricPrecision;text-rendering:geometricPrecision"
         x="174.09035"
         y="146.91277"
         id="text342"><tspan
           sodipodi:role="line"
           id="tspan342"
           x="174.09035"
           y="146.91277"
           style="stroke-width:0.201068">15</tspan></text>
      <text
         xml:space="preserve"
         style="font-style:normal;font-variant:normal;font-weight:bold;font-stretch:normal;font-size:3.89475px;line-height:1.4;font-family:Poppins;-inkscape-font-specification:'Poppins, Bold';font-variant-ligatures:normal;font-variant-caps:normal;font-variant-numeric:normal;font-variant-east-asian:normal;letter-spacing:-0.0113938px;writing-mode:lr-tb;direction:ltr;clip-rule:evenodd;fill:#ffffff;fill-opacity:1;fill-rule:evenodd;stroke:none;stroke-width:0.201068;stroke-linecap:round;stroke-linejoin:round;stroke-dasharray:none;stroke-opacity:1;paint-order:stroke markers fill;image-rendering:optimizeQuality;shape-rendering:geometricPrecision;text-rendering:geometricPrecision"
         x="174.067"
         y="161.43544"
         id="text343"><tspan
           sodipodi:role="line"
           id="tspan343"
           x="174.067"
           y="161.43544"
           style="fill:#ffffff;fill-opacity:1;stroke-width:0.201068">10</tspan></text>
      <text
         xml:space="preserve"
         style="font-style:normal;font-variant:normal;font-weight:bold;font-stretch:normal;font-size:3.89475px;line-height:1.4;font-family:Poppins;-inkscape-font-specification:'Poppins, Bold';font-variant-ligatures:normal;font-variant-caps:normal;font-variant-numeric:normal;font-variant-east-asian:normal;letter-spacing:-0.0113938px;writing-mode:lr-tb;direction:ltr;clip-rule:evenodd;fill:#ffffff;fill-opacity:1;fill-rule:evenodd;stroke:none;stroke-width:0.201068;stroke-linecap:round;stroke-linejoin:round;stroke-dasharray:none;stroke-opacity:1;paint-order:stroke markers fill;image-rendering:optimizeQuality;shape-rendering:geometricPrecision;text-rendering:geometricPrecision"
         x="175.5434"
         y="175.90359"
         id="text344"><tspan
           sodipodi:role="line"
           id="tspan344"
           x="175.5434"
           y="175.90359"
           style="fill:#ffffff;fill-opacity:1;stroke-width:0.201068">5</tspan></text>
    </g>
    <g
       id="g24"
       transform="translate(0.79373943)">
      <g
         id="g5"
         transform="matrix(0.35764251,0,0,0.35764251,97.67625,196.63347)">
        <path
           d="m 124.91612,17.356601 c -0.0319,-0.254264 -0.4494,-0.254264 -0.48014,0 -1.04426,8.404942 -6.38384,10.137495 -6.38384,15.979681 0,3.61056 3.03228,6.53639 6.62392,6.53639 3.59045,0 6.62271,-2.92701 6.62271,-6.53639 0,-5.842186 -5.33839,-7.574739 -6.38265,-15.979681 z m -1.00878,9.291915 c -0.0698,0.258996 -0.14547,0.525087 -0.22352,0.801823 -0.47421,1.684062 -1.01232,3.594007 -1.01232,5.801973 0,1.19682 -0.7072,1.62139 -1.36713,1.62139 a 1.3730321,1.3730321 0 0 1 -1.3671,-1.37895 c 0,-2.610058 1.25595,-4.315411 2.36524,-5.818533 0.34888,-0.470683 0.67646,-0.916538 0.94255,-1.360022 0.12182,-0.203412 0.44942,-0.19395 0.59841,0.0071 0.0698,0.09461 0.0934,0.215238 0.0639,0.325223 z"
           id="path2"
           style="clip-rule:evenodd;fill:#0c2b4b;fill-opacity:1;fill-rule:evenodd;stroke-width:1.18263;image-rendering:optimizeQuality;shape-rendering:geometricPrecision;text-rendering:geometricPrecision" />
        <path
           d="m 135.71414,8.3206973 c -0.0212,-0.171598 -0.30322,-0.171598 -0.32396,0 -0.70485,5.6722907 -4.30829,6.8415587 -4.30829,10.7843157 0,2.436675 2.04642,4.411249 4.47032,4.411249 2.42311,0 4.46953,-1.975368 4.46953,-4.411249 0,-3.942757 -3.60275,-5.112025 -4.30753,-10.7843157 z"
           id="path3"
           style="clip-rule:evenodd;fill:#0c2b4b;fill-opacity:1;fill-rule:evenodd;stroke-width:0.798129;image-rendering:optimizeQuality;shape-rendering:geometricPrecision;text-rendering:geometricPrecision"
           sodipodi:nodetypes="ccsssc" />
      </g>
      <path
         id="text7"
         style="font-size:34.9549px;line-height:1.4;font-family:Jua;-inkscape-font-specification:'Jua, Normal';letter-spacing:-0.0899583px;fill:#0c2b4b;stroke-width:1.5875;stroke-linecap:round;stroke-linejoin:round;paint-order:stroke markers fill"
         d="m 129.75297,206.43889 c -0.41946,0 -0.7807,0.10498 -1.08365,0.31471 -0.34955,0.20973 -0.59399,0.48916 -0.73381,0.83871 -0.20973,0.37285 -0.33787,0.82726 -0.38447,1.36323 0,0.23303 -0.0118,0.46615 -0.0351,0.69918 0,0.23303 -0.0118,0.46615 -0.0351,0.69918 v 0.17467 c -0.0233,0.79231 -0.0465,1.51482 -0.0698,2.16731 v 2.23707 4.68395 l -0.0698,5.06843 c 0,0.74571 -0.0118,1.5032 -0.0351,2.27221 -0.0233,0.76901 0.0117,1.54966 0.10491,2.34197 0,0.11651 0.0113,0.23283 0.0346,0.34934 0.0233,0.0932 0.0583,0.19819 0.1049,0.31471 0.18643,0.48937 0.50137,0.85062 0.94413,1.08365 0.46607,0.20973 0.97862,0.33787 1.53789,0.38447 0.55928,0.0699 1.12998,0.0817 1.71256,0.0351 0.58259,-0.0233 1.10696,-0.0233 1.57303,0 1.91087,0.0233 13.81762,0.0233 15.61197,0 h 0.14004 c 0.27964,-0.0466 0.55907,-0.0703 0.83871,-0.0703 0.27964,0 0.54774,-0.0113 0.80408,-0.0346 0.48937,0 1.01375,-0.0932 1.57303,-0.27957 0.39616,-0.13982 0.69926,-0.34978 0.90899,-0.62942 0.11652,-0.13982 0.20967,-0.2911 0.27957,-0.45423 0.0699,-0.16312 0.10491,-0.33809 0.10491,-0.52452 v -0.52451 c 0,-0.23303 -0.0237,-0.40748 -0.0703,-0.524 h 5.1e-4 c -0.0699,-0.23303 -0.23304,-0.46616 -0.48937,-0.69919 -0.16313,-0.16312 -0.37309,-0.27995 -0.62942,-0.34985 -0.13982,-0.0466 -0.27928,-0.0811 -0.4191,-0.10438 -0.13982,-0.0233 -0.30295,-0.047 -0.48937,-0.0703 -0.16312,-0.0233 -0.32626,-0.0346 -0.48938,-0.0346 -0.16312,-0.0233 -0.31493,-0.0351 -0.45475,-0.0351 h -1.6428 l -16.97519,-0.0698 0.0662,-7.83725 h -2.21589 v -0.48834 h 2.22002 l 0.006,-0.71882 h -2.22622 v -0.48834 h 2.23036 l 0.006,-0.71882 h -2.23656 v -0.48834 h 2.24069 l 0.006,-0.71882 H 129.77 v -0.48834 h 2.25103 l 0.006,-0.71882 h -2.25723 v -0.48834 h 2.26136 l 0.006,-0.71882 h -2.26756 v -0.48835 h 2.2717 l 0.006,-0.71881 h -2.2779 v -0.48835 h 2.28203 l 0.006,-0.71882 h -2.28824 v -0.48834 h 2.28979 v -0.31729 -0.38447 c 0,-0.006 -8e-5,-0.0114 0,-0.0171 h -2.28979 v -0.48834 h 2.358 c -0.004,-0.11115 -0.0151,-0.22268 -0.0336,-0.33383 -0.0233,-0.13981 -0.0465,-0.29111 -0.0698,-0.45424 -0.0233,-0.25633 -0.0815,-0.5126 -0.17467,-0.76894 -0.11652,-0.23303 -0.24466,-0.43116 -0.38447,-0.59428 -0.13982,-0.11651 -0.2798,-0.20967 -0.41962,-0.27957 -0.11652,-0.0699 -0.24465,-0.11674 -0.38447,-0.14004 -0.13982,-0.0233 -0.29163,-0.0346 -0.45475,-0.0346 -0.13982,-0.0233 -0.29112,-0.0351 -0.45424,-0.0351 z" />
      <text
         xml:space="preserve"
         style="font-style:normal;font-variant:normal;font-weight:normal;font-stretch:normal;font-size:30.9454px;line-height:1.4;font-family:Jua;-inkscape-font-specification:'Jua, Normal';font-variant-ligatures:normal;font-variant-caps:normal;font-variant-numeric:normal;font-variant-east-asian:normal;letter-spacing:-0.0796396px;writing-mode:lr-tb;direction:ltr;fill:#0c2b4b;fill-opacity:1;stroke-width:1.4054;stroke-linecap:round;stroke-linejoin:round;paint-order:stroke markers fill"
         x="116.83676"
         y="255.31247"
         id="text8"
         transform="scale(1.1295667,0.88529521)"><tspan
           sodipodi:role="line"
           id="tspan8"
           style="fill:#0c2b4b;fill-opacity:1;stroke-width:1.4054"
           x="116.83676"
           y="255.31247">U</tspan></text>
      <text
         xml:space="preserve"
         style="font-style:normal;font-variant:normal;font-weight:normal;font-stretch:normal;font-size:35.8841px;line-height:1.4;font-family:Jua;-inkscape-font-specification:'Jua, Normal';font-variant-ligatures:normal;font-variant-caps:normal;font-variant-numeric:normal;font-variant-east-asian:normal;letter-spacing:-0.414636px;writing-mode:lr-tb;direction:ltr;clip-rule:evenodd;fill:#0c2b4b;fill-opacity:1;fill-rule:evenodd;stroke:none;stroke-width:3.65854;stroke-linecap:round;stroke-linejoin:round;paint-order:stroke markers fill;image-rendering:optimizeQuality;shape-rendering:geometricPrecision;text-rendering:geometricPrecision"
         x="154.07201"
         y="231.09988"
         id="text9"><tspan
           sodipodi:role="line"
           id="tspan9"
           x="154.07201"
           y="231.09988"
           style="font-style:normal;font-variant:normal;font-weight:normal;font-stretch:normal;font-size:35.8841px;font-family:Jua;-inkscape-font-specification:'Jua, Normal';font-variant-ligatures:normal;font-variant-caps:normal;font-variant-numeric:normal;font-variant-east-asian:normal;fill:#0c2b4b;fill-opacity:1;stroke:none;stroke-width:3.65854">VIA</tspan></text>
      <text
         xml:space="preserve"
         style="font-style:normal;font-variant:normal;font-weight:normal;font-stretch:normal;font-size:35.8841px;line-height:1.4;font-family:Jua;-inkscape-font-specification:'Jua, Normal';font-variant-ligatures:normal;font-variant-caps:normal;font-variant-numeric:normal;font-variant-east-asian:normal;letter-spacing:-0.414636px;writing-mode:lr-tb;direction:ltr;clip-rule:evenodd;fill:#0c2b4b;fill-opacity:1;fill-rule:evenodd;stroke:none;stroke-width:3.65854;stroke-linecap:round;stroke-linejoin:round;paint-order:stroke markers fill;image-rendering:optimizeQuality;shape-rendering:geometricPrecision;text-rendering:geometricPrecision"
         x="105.73123"
         y="231.38693"
         id="text10"><tspan
           sodipodi:role="line"
           id="tspan10"
           x="105.73123"
           y="231.38693"
           style="font-style:normal;font-variant:normal;font-weight:normal;font-stretch:normal;font-size:35.8841px;font-family:Jua;-inkscape-font-specification:'Jua, Normal';font-variant-ligatures:normal;font-variant-caps:normal;font-variant-numeric:normal;font-variant-east-asian:normal;fill:#0c2b4b;fill-opacity:1;stroke:none;stroke-width:3.65854">P</tspan></text>
    </g>
  </g>
</svg>
